<svg version="1.1" id="Layer_1" xmlns="http://www.w3.org/2000/svg" x="0" y="0" viewBox="0 0 128 42" xml:space="preserve"><style>.st3{fill:#fff}</style><path d="M61.99 38.1c-1.54 0-2.91-.26-4.12-.79s-2.17-1.38-2.88-2.56c-.71-1.18-1.06-2.74-1.06-4.68V19.59c0-1.94.35-3.5 1.06-4.68.71-1.18 1.67-2.03 2.88-2.56 1.21-.53 2.55-.79 4.01-.79 1.63 0 3.06.28 4.28.83 1.22.55 2.18 1.32 2.88 2.3.7.98 1.04 2.16 1.04 3.53 0 .72-.16 1.21-.49 1.46-.32.25-.8.38-1.42.38-.5 0-.94-.09-1.31-.27-.37-.18-.57-.51-.59-.99a6.3 6.3 0 00-.5-1.93c-.26-.59-.7-1.06-1.3-1.4-.6-.35-1.43-.52-2.48-.52-1.34 0-2.39.38-3.15 1.13-.76.76-1.13 1.93-1.13 3.51v10.48c0 1.58.38 2.75 1.13 3.51s1.81 1.13 3.15 1.13c1.32 0 2.36-.38 3.13-1.13.77-.76 1.15-1.93 1.15-3.51v-2.95h-3.64c-.38 0-.68-.16-.9-.47-.22-.31-.32-.67-.32-1.08 0-.36.11-.7.32-1.03s.52-.49.9-.49h6.19c.41 0 .72.13.94.38s.32.56.32.92v4.72c0 1.94-.36 3.5-1.08 4.68s-1.69 2.03-2.92 2.56c-1.21.52-2.57.79-4.09.79zm13.65-21.57c-.62 0-1.15-.2-1.58-.61-.43-.41-.65-.86-.65-1.37 0-.55.22-1.02.65-1.4.43-.38.96-.58 1.58-.58.6 0 1.11.19 1.53.58.42.38.63.85.63 1.4 0 .5-.21.96-.63 1.37-.42.41-.93.61-1.53.61zm0 21.35c-.55 0-1-.13-1.35-.4-.35-.26-.52-.55-.52-.86V22.04c0-.36.17-.65.52-.88.35-.23.8-.34 1.35-.34.53 0 .98.11 1.35.34.37.23.56.52.56.88v14.58c0 .31-.19.6-.56.86-.37.27-.82.4-1.35.4zm9.54.29c-1.32 0-2.45-.39-3.38-1.17-.94-.78-1.4-1.97-1.4-3.58 0-1.37.36-2.42 1.08-3.17.72-.74 1.71-1.26 2.97-1.55 1.26-.29 2.72-.43 4.37-.43h1.58v-.65c0-.62-.11-1.23-.34-1.82-.23-.59-.6-1.08-1.12-1.48-.52-.4-1.22-.59-2.11-.59s-1.57.08-2.05.25c-.48.17-.86.35-1.15.54-.29.19-.55.29-.79.29-.43 0-.77-.21-1.01-.63-.24-.42-.36-.85-.36-1.28 0-.43.28-.82.85-1.17.56-.35 1.27-.62 2.11-.83.84-.2 1.67-.31 2.48-.31 1.78 0 3.19.33 4.25.99 1.06.66 1.82 1.52 2.3 2.57.48 1.06.72 2.2.72 3.42v9.04c0 .34-.17.63-.52.88s-.79.38-1.31.38c-.48 0-.89-.13-1.22-.38-.34-.25-.5-.55-.5-.88v-1.26c-.62.72-1.38 1.37-2.27 1.94s-1.96.88-3.18.88zm1.36-2.88c.6 0 1.19-.18 1.78-.54a5.1 5.1 0 001.48-1.37c.4-.55.59-1.12.59-1.69v-1.33h-.9c-.91 0-1.78.05-2.59.16-.82.11-1.47.35-1.96.72s-.74.94-.74 1.71c0 .82.22 1.41.67 1.78.44.37 1 .56 1.67.56zm13.33 2.59c-.55 0-1-.13-1.35-.4-.35-.26-.52-.55-.52-.86V22.04c0-.36.17-.65.52-.88.35-.23.8-.34 1.35-.34.46 0 .85.11 1.19.34.34.23.5.52.5.88v1.3c.36-.7.95-1.33 1.78-1.89.83-.56 1.84-.85 3.04-.85 1.13 0 2.17.32 3.11.95.95.64 1.71 1.49 2.29 2.56.58 1.07.86 2.26.86 3.58v8.93c0 .41-.2.72-.59.94-.4.22-.83.32-1.31.32-.43 0-.85-.11-1.26-.32s-.61-.53-.61-.94v-8.93c0-.62-.16-1.22-.49-1.8s-.76-1.04-1.31-1.4c-.55-.36-1.17-.54-1.84-.54-.58 0-1.13.15-1.66.45-.53.3-.96.73-1.3 1.28-.34.55-.5 1.22-.5 2.02v8.93c0 .31-.19.6-.56.86-.37.26-.82.39-1.34.39zm22.78 0c-2.04 0-3.6-.45-4.68-1.35-1.08-.9-1.62-2.32-1.62-4.27V14.23c0-.36.2-.65.59-.88.4-.23.82-.34 1.28-.34s.89.11 1.3.34c.41.23.61.52.61.88v6.59h4.39c.34 0 .59.14.77.43.18.29.27.61.27.97s-.09.68-.27.97c-.18.29-.44.43-.77.43h-4.39v8.64c0 .86.19 1.48.56 1.84.37.36 1.03.54 1.96.54h1.22c.55 0 .97.16 1.24.49.28.32.41.7.41 1.13 0 .41-.14.78-.41 1.12-.28.34-.69.5-1.24.5h-1.22z" fill="#fff"/><path class="st3" d="M61.66 38.76c-1.57 0-2.99-.27-4.25-.8-1.26-.54-2.27-1.4-3.02-2.6s-1.12-2.8-1.12-4.8v-9.88c0-2 .38-3.6 1.12-4.8.75-1.2 1.75-2.07 3-2.6 1.25-.54 2.62-.8 4.12-.8 1.67 0 3.14.27 4.41.82 1.27.55 2.28 1.33 3.02 2.35.74 1.02 1.11 2.25 1.11 3.67 0 .88-.19 1.47-.57 1.77s-.96.45-1.75.45c-.62 0-1.16-.11-1.61-.32-.45-.21-.69-.59-.71-1.14-.02-.57-.14-1.12-.34-1.66-.2-.54-.56-.98-1.07-1.34-.51-.36-1.29-.54-2.34-.54-1.17 0-2.08.34-2.73 1.02-.66.68-.98 1.72-.98 3.12v9.88c0 1.4.33 2.44.98 3.12.65.68 1.57 1.02 2.73 1.02 1.17 0 2.08-.34 2.75-1.02.67-.68 1-1.72 1-3.12v-2.07h-2.89c-.45 0-.8-.19-1.05-.57-.25-.38-.38-.8-.38-1.25s.12-.87.38-1.25c.25-.38.6-.57 1.05-.57h6.07c.48 0 .84.15 1.09.45.25.3.38.66.38 1.09v4.17c0 2-.37 3.6-1.11 4.8s-1.74 2.07-3.02 2.6c-1.28.53-2.7.8-4.27.8zm13.96-20.94c-.69 0-1.29-.23-1.79-.7s-.75-.98-.75-1.55c0-.62.25-1.15.75-1.59.5-.44 1.09-.66 1.79-.66.69 0 1.28.22 1.77.66.49.44.73.97.73 1.59 0 .57-.25 1.09-.73 1.55-.49.47-1.08.7-1.77.7zm0 20.72c-.67 0-1.21-.15-1.64-.46-.43-.31-.64-.65-.64-1.03V23.03c0-.43.21-.77.64-1.03.43-.26.98-.39 1.64-.39.64 0 1.19.13 1.64.39.45.26.68.61.68 1.03v14.02c0 .38-.23.73-.68 1.03-.45.31-.99.46-1.64.46zm9.5.33c-1.26 0-2.35-.39-3.27-1.16-.92-.77-1.38-1.97-1.38-3.59 0-1.36.35-2.41 1.05-3.17.7-.76 1.68-1.3 2.93-1.61 1.25-.31 2.7-.46 4.34-.46h1.46v-.46c0-.52-.1-1.04-.3-1.53-.2-.5-.52-.92-.96-1.25-.44-.33-1.07-.5-1.88-.5-.91 0-1.6.09-2.09.27-.49.18-.86.36-1.12.55-.26.19-.55.29-.86.29-.5 0-.89-.25-1.16-.75-.27-.5-.41-1.01-.41-1.53 0-.5.3-.95.91-1.34.61-.39 1.35-.7 2.23-.91.88-.21 1.74-.32 2.57-.32 1.86 0 3.34.33 4.46 1 1.12.67 1.93 1.52 2.45 2.57.51 1.05.77 2.18.77 3.39v8.7c0 .43-.21.78-.64 1.07-.43.29-.96.43-1.61.43-.6 0-1.09-.14-1.48-.43-.39-.29-.59-.64-.59-1.07v-1c-.64.74-1.4 1.39-2.27 1.96-.85.56-1.91.85-3.15.85zm1.86-3.43c.5 0 1-.17 1.5-.5s.92-.76 1.27-1.29c.34-.52.52-1.07.52-1.64v-.75h-.54c-.79 0-1.54.05-2.25.14-.71.1-1.29.3-1.73.62-.44.32-.66.82-.66 1.48 0 .67.18 1.15.55 1.46.37.33.82.48 1.34.48zm13.61 3.1c-.67 0-1.21-.15-1.64-.46-.43-.31-.64-.65-.64-1.03V23.03c0-.43.21-.77.64-1.03.43-.26.98-.39 1.64-.39.57 0 1.05.13 1.45.39.39.26.59.61.59 1.03v1.07c.36-.69.95-1.31 1.77-1.87s1.83-.84 3.02-.84c1.12 0 2.14.33 3.07.98.93.65 1.67 1.53 2.23 2.62s.84 2.31.84 3.64v8.42c0 .5-.24.87-.71 1.12-.48.25-1.01.38-1.61.38-.52 0-1.04-.12-1.54-.38-.5-.25-.75-.62-.75-1.12v-8.42c0-.55-.14-1.06-.41-1.53s-.65-.87-1.12-1.2a2.735 2.735 0 00-2.96-.09c-.45.26-.82.63-1.11 1.11-.29.48-.43 1.05-.43 1.71v8.42c0 .38-.23.73-.68 1.03-.46.31-1.01.46-1.65.46zm22.93 0c-2.14 0-3.78-.46-4.91-1.39-1.13-.93-1.7-2.4-1.7-4.42V15.46c0-.43.25-.77.75-1.03s1.01-.39 1.54-.39c.57 0 1.1.13 1.59.39s.73.61.73 1.03v6.14h4.21c.38 0 .67.17.88.52.2.35.3.73.3 1.16 0 .43-.1.82-.3 1.16-.2.34-.5.52-.88.52h-4.21v7.78c0 .71.15 1.21.45 1.5s.82.43 1.55.43h1.39c.67 0 1.16.2 1.48.61.32.41.48.84.48 1.32 0 .5-.16.95-.48 1.36s-.82.61-1.48.61h-1.39z"/><path class="st3" d="M20.9 34.38h-1.37c-6.24 0-11.3-5.08-11.3-11.34 0-7.61 6.14-13.77 13.72-13.77h19.43c4 0 7.23-3.25 7.23-7.26H22.03C10.42 2 1 11.45 1 23.12c0 10.23 8.26 18.52 18.45 18.52h1.54c8.6 0 15.58-7 15.58-15.64v-.8c0-2.25-.57-4.44-1.58-6.25h1.88c3.66 0 6.63-2.98 6.63-6.66l-21.7.01c-6.03.17-10.49 4.84-10.49 10.89 0 4.54 3.65 8.17 8.22 8.17h1.43c3.13 0 5.67-2.55 5.67-5.69 0-1.88-1.53-3.41-3.42-3.38-.62.01-1.22.28-1.65.74l-.61.65c-.56.6-1.49.72-2.14.22-.74-.57-.82-1.65-.2-2.32l.4-.43a5.847 5.847 0 014.29-1.89c3.5 0 6.33 2.85 6.33 6.36 0 4.83-3.91 8.76-8.73 8.76z" id="Logo_2_"/></svg>