<?xml version="1.0" encoding="utf-8"?>
<!-- Generator: Adobe Illustrator 23.0.3, SVG Export Plug-In . SVG Version: 6.00 Build 0)  -->
<svg version="1.1" id="Layer_1" xmlns="http://www.w3.org/2000/svg" xmlns:xlink="http://www.w3.org/1999/xlink" x="0px" y="0px"
	 viewBox="0 0 128 42" style="enable-background:new 0 0 128 42;" xml:space="preserve">
<style type="text/css">
	.st0{display:none;}
	.st1{display:inline;fill:#FFFFFF;}
	.st2{display:inline;}
	.st3{fill:#FFFFFF;}
</style>
<g class="st0">
	<path class="st1" d="M61.99,38.1c-1.54,0-2.91-0.26-4.12-0.79c-1.21-0.53-2.17-1.38-2.88-2.56c-0.71-1.18-1.06-2.74-1.06-4.68
		V19.59c0-1.94,0.35-3.5,1.06-4.68c0.71-1.18,1.67-2.03,2.88-2.56c1.21-0.53,2.55-0.79,4.01-0.79c1.63,0,3.06,0.28,4.28,0.83
		c1.22,0.55,2.18,1.32,2.88,2.3c0.7,0.98,1.04,2.16,1.04,3.53c0,0.72-0.16,1.21-0.49,1.46c-0.32,0.25-0.8,0.38-1.42,0.38
		c-0.5,0-0.94-0.09-1.31-0.27c-0.37-0.18-0.57-0.51-0.59-0.99c-0.07-0.7-0.24-1.34-0.5-1.93c-0.26-0.59-0.7-1.06-1.3-1.4
		c-0.6-0.35-1.43-0.52-2.48-0.52c-1.34,0-2.39,0.38-3.15,1.13c-0.76,0.76-1.13,1.93-1.13,3.51v10.48c0,1.58,0.38,2.75,1.13,3.51
		s1.81,1.13,3.15,1.13c1.32,0,2.36-0.38,3.13-1.13c0.77-0.76,1.15-1.93,1.15-3.51v-2.95h-3.64c-0.38,0-0.68-0.16-0.9-0.47
		c-0.22-0.31-0.32-0.67-0.32-1.08c0-0.36,0.11-0.7,0.32-1.03s0.52-0.49,0.9-0.49h6.19c0.41,0,0.72,0.13,0.94,0.38
		s0.32,0.56,0.32,0.92v4.72c0,1.94-0.36,3.5-1.08,4.68s-1.69,2.03-2.92,2.56C64.87,37.83,63.51,38.1,61.99,38.1z"/>
	<path class="st1" d="M75.64,16.53c-0.62,0-1.15-0.2-1.58-0.61c-0.43-0.41-0.65-0.86-0.65-1.37c0-0.55,0.22-1.02,0.65-1.4
		c0.43-0.38,0.96-0.58,1.58-0.58c0.6,0,1.11,0.19,1.53,0.58c0.42,0.38,0.63,0.85,0.63,1.4c0,0.5-0.21,0.96-0.63,1.37
		C76.75,16.33,76.24,16.53,75.64,16.53z M75.64,37.88c-0.55,0-1-0.13-1.35-0.4c-0.35-0.26-0.52-0.55-0.52-0.86V22.04
		c0-0.36,0.17-0.65,0.52-0.88c0.35-0.23,0.8-0.34,1.35-0.34c0.53,0,0.98,0.11,1.35,0.34c0.37,0.23,0.56,0.52,0.56,0.88v14.58
		c0,0.31-0.19,0.6-0.56,0.86C76.62,37.75,76.17,37.88,75.64,37.88z"/>
	<path class="st1" d="M85.18,38.17c-1.32,0-2.45-0.39-3.38-1.17c-0.94-0.78-1.4-1.97-1.4-3.58c0-1.37,0.36-2.42,1.08-3.17
		c0.72-0.74,1.71-1.26,2.97-1.55c1.26-0.29,2.72-0.43,4.37-0.43h1.58v-0.65c0-0.62-0.11-1.23-0.34-1.82
		c-0.23-0.59-0.6-1.08-1.12-1.48c-0.52-0.4-1.22-0.59-2.11-0.59s-1.57,0.08-2.05,0.25c-0.48,0.17-0.86,0.35-1.15,0.54
		c-0.29,0.19-0.55,0.29-0.79,0.29c-0.43,0-0.77-0.21-1.01-0.63c-0.24-0.42-0.36-0.85-0.36-1.28c0-0.43,0.28-0.82,0.85-1.17
		c0.56-0.35,1.27-0.62,2.11-0.83c0.84-0.2,1.67-0.31,2.48-0.31c1.78,0,3.19,0.33,4.25,0.99c1.06,0.66,1.82,1.52,2.3,2.57
		c0.48,1.06,0.72,2.2,0.72,3.42v9.04c0,0.34-0.17,0.63-0.52,0.88c-0.35,0.25-0.79,0.38-1.31,0.38c-0.48,0-0.89-0.13-1.22-0.38
		c-0.34-0.25-0.5-0.55-0.5-0.88v-1.26c-0.62,0.72-1.38,1.37-2.27,1.94S86.4,38.17,85.18,38.17z M86.54,35.29
		c0.6,0,1.19-0.18,1.78-0.54c0.59-0.36,1.08-0.82,1.48-1.37c0.4-0.55,0.59-1.12,0.59-1.69v-1.33h-0.9c-0.91,0-1.78,0.05-2.59,0.16
		c-0.82,0.11-1.47,0.35-1.96,0.72c-0.49,0.37-0.74,0.94-0.74,1.71c0,0.82,0.22,1.41,0.67,1.78C85.31,35.1,85.87,35.29,86.54,35.29z"
		/>
	<path class="st1" d="M99.87,37.88c-0.55,0-1-0.13-1.35-0.4c-0.35-0.26-0.52-0.55-0.52-0.86V22.04c0-0.36,0.17-0.65,0.52-0.88
		c0.35-0.23,0.8-0.34,1.35-0.34c0.46,0,0.85,0.11,1.19,0.34c0.34,0.23,0.5,0.52,0.5,0.88v1.3c0.36-0.7,0.95-1.33,1.78-1.89
		c0.83-0.56,1.84-0.85,3.04-0.85c1.13,0,2.17,0.32,3.11,0.95c0.95,0.64,1.71,1.49,2.29,2.56c0.58,1.07,0.86,2.26,0.86,3.58v8.93
		c0,0.41-0.2,0.72-0.59,0.94c-0.4,0.22-0.83,0.32-1.31,0.32c-0.43,0-0.85-0.11-1.26-0.32s-0.61-0.53-0.61-0.94v-8.93
		c0-0.62-0.16-1.22-0.49-1.8s-0.76-1.04-1.31-1.4c-0.55-0.36-1.17-0.54-1.84-0.54c-0.58,0-1.13,0.15-1.66,0.45
		c-0.53,0.3-0.96,0.73-1.3,1.28c-0.34,0.55-0.5,1.22-0.5,2.02v8.93c0,0.31-0.19,0.6-0.56,0.86
		C100.84,37.75,100.39,37.88,99.87,37.88z"/>
	<path class="st1" d="M122.65,37.88c-2.04,0-3.6-0.45-4.68-1.35c-1.08-0.9-1.62-2.32-1.62-4.27V14.23c0-0.36,0.2-0.65,0.59-0.88
		c0.4-0.23,0.82-0.34,1.28-0.34s0.89,0.11,1.3,0.34c0.41,0.23,0.61,0.52,0.61,0.88v6.59h4.39c0.34,0,0.59,0.14,0.77,0.43
		c0.18,0.29,0.27,0.61,0.27,0.97c0,0.36-0.09,0.68-0.27,0.97c-0.18,0.29-0.44,0.43-0.77,0.43h-4.39v8.64c0,0.86,0.19,1.48,0.56,1.84
		c0.37,0.36,1.03,0.54,1.96,0.54h1.22c0.55,0,0.97,0.16,1.24,0.49c0.28,0.32,0.41,0.7,0.41,1.13c0,0.41-0.14,0.78-0.41,1.12
		c-0.28,0.34-0.69,0.5-1.24,0.5H122.65z"/>
</g>
<g id="Logo" class="st0">
	<g class="st2">
		<path class="st3" d="M21.05,33.67h-1.38c-6.29,0-11.39-5.12-11.39-11.44c0-7.68,6.19-13.9,13.83-13.9h19.59
			C45.74,8.33,49,5.05,49,1H22.2C10.49,1,1,10.54,1,22.31C1,32.63,9.33,41,19.6,41h1.55c8.67,0,15.7-7.07,15.7-15.78v-0.81
			c0-2.27-0.58-4.48-1.59-6.31h1.9c3.69,0,6.68-3.01,6.68-6.72l-21.87,0.01c-6.08,0.17-10.58,4.88-10.58,10.99
			c0,4.58,3.68,8.24,8.28,8.24h1.44c3.16,0,5.72-2.57,5.72-5.74c0-1.9-1.55-3.44-3.44-3.42c-0.63,0.01-1.23,0.28-1.66,0.74
			l-0.62,0.66c-0.56,0.6-1.5,0.73-2.15,0.23c-0.75-0.58-0.83-1.66-0.2-2.34l0.4-0.44c1.12-1.21,2.68-1.9,4.33-1.9h0
			c3.53,0,6.38,2.87,6.38,6.42C29.86,29.71,25.92,33.67,21.05,33.67z"/>
	</g>
</g>
<g>
	<path class="st3" d="M61.66,38.76c-1.57,0-2.99-0.27-4.25-0.8c-1.26-0.54-2.27-1.4-3.02-2.6s-1.12-2.8-1.12-4.8v-9.88
		c0-2,0.38-3.6,1.12-4.8c0.75-1.2,1.75-2.07,3-2.6c1.25-0.54,2.62-0.8,4.12-0.8c1.67,0,3.14,0.27,4.41,0.82
		c1.27,0.55,2.28,1.33,3.02,2.35c0.74,1.02,1.11,2.25,1.11,3.67c0,0.88-0.19,1.47-0.57,1.77s-0.96,0.45-1.75,0.45
		c-0.62,0-1.16-0.11-1.61-0.32c-0.45-0.21-0.69-0.59-0.71-1.14c-0.02-0.57-0.14-1.12-0.34-1.66c-0.2-0.54-0.56-0.98-1.07-1.34
		c-0.51-0.36-1.29-0.54-2.34-0.54c-1.17,0-2.08,0.34-2.73,1.02c-0.66,0.68-0.98,1.72-0.98,3.12v9.88c0,1.4,0.33,2.44,0.98,3.12
		c0.65,0.68,1.57,1.02,2.73,1.02c1.17,0,2.08-0.34,2.75-1.02c0.67-0.68,1-1.72,1-3.12v-2.07h-2.89c-0.45,0-0.8-0.19-1.05-0.57
		c-0.25-0.38-0.38-0.8-0.38-1.25s0.12-0.87,0.38-1.25c0.25-0.38,0.6-0.57,1.05-0.57h6.07c0.48,0,0.84,0.15,1.09,0.45
		c0.25,0.3,0.38,0.66,0.38,1.09v4.17c0,2-0.37,3.6-1.11,4.8s-1.74,2.07-3.02,2.6C64.65,38.49,63.23,38.76,61.66,38.76z"/>
	<path class="st3" d="M75.62,17.82c-0.69,0-1.29-0.23-1.79-0.7s-0.75-0.98-0.75-1.55c0-0.62,0.25-1.15,0.75-1.59
		c0.5-0.44,1.09-0.66,1.79-0.66c0.69,0,1.28,0.22,1.77,0.66c0.49,0.44,0.73,0.97,0.73,1.59c0,0.57-0.25,1.09-0.73,1.55
		C76.9,17.59,76.31,17.82,75.62,17.82z M75.62,38.54c-0.67,0-1.21-0.15-1.64-0.46c-0.43-0.31-0.64-0.65-0.64-1.03V23.03
		c0-0.43,0.21-0.77,0.64-1.03c0.43-0.26,0.98-0.39,1.64-0.39c0.64,0,1.19,0.13,1.64,0.39c0.45,0.26,0.68,0.61,0.68,1.03v14.02
		c0,0.38-0.23,0.73-0.68,1.03C76.81,38.39,76.27,38.54,75.62,38.54z"/>
	<path class="st3" d="M85.12,38.87c-1.26,0-2.35-0.39-3.27-1.16c-0.92-0.77-1.38-1.97-1.38-3.59c0-1.36,0.35-2.41,1.05-3.17
		c0.7-0.76,1.68-1.3,2.93-1.61c1.25-0.31,2.7-0.46,4.34-0.46h1.46v-0.46c0-0.52-0.1-1.04-0.3-1.53c-0.2-0.5-0.52-0.92-0.96-1.25
		c-0.44-0.33-1.07-0.5-1.88-0.5c-0.91,0-1.6,0.09-2.09,0.27c-0.49,0.18-0.86,0.36-1.12,0.55c-0.26,0.19-0.55,0.29-0.86,0.29
		c-0.5,0-0.89-0.25-1.16-0.75c-0.27-0.5-0.41-1.01-0.41-1.53c0-0.5,0.3-0.95,0.91-1.34c0.61-0.39,1.35-0.7,2.23-0.91
		c0.88-0.21,1.74-0.32,2.57-0.32c1.86,0,3.34,0.33,4.46,1c1.12,0.67,1.93,1.52,2.45,2.57c0.51,1.05,0.77,2.18,0.77,3.39v8.7
		c0,0.43-0.21,0.78-0.64,1.07c-0.43,0.29-0.96,0.43-1.61,0.43c-0.6,0-1.09-0.14-1.48-0.43c-0.39-0.29-0.59-0.64-0.59-1.07v-1
		c-0.64,0.74-1.4,1.39-2.27,1.96C87.42,38.58,86.36,38.87,85.12,38.87z M86.98,35.44c0.5,0,1-0.17,1.5-0.5s0.92-0.76,1.27-1.29
		c0.34-0.52,0.52-1.07,0.52-1.64v-0.75h-0.54c-0.79,0-1.54,0.05-2.25,0.14c-0.71,0.1-1.29,0.3-1.73,0.62
		c-0.44,0.32-0.66,0.82-0.66,1.48c0,0.67,0.18,1.15,0.55,1.46C86.01,35.29,86.46,35.44,86.98,35.44z"/>
	<path class="st3" d="M100.59,38.54c-0.67,0-1.21-0.15-1.64-0.46c-0.43-0.31-0.64-0.65-0.64-1.03V23.03c0-0.43,0.21-0.77,0.64-1.03
		c0.43-0.26,0.98-0.39,1.64-0.39c0.57,0,1.05,0.13,1.45,0.39c0.39,0.26,0.59,0.61,0.59,1.03v1.07c0.36-0.69,0.95-1.31,1.77-1.87
		s1.83-0.84,3.02-0.84c1.12,0,2.14,0.33,3.07,0.98c0.93,0.65,1.67,1.53,2.23,2.62c0.56,1.09,0.84,2.31,0.84,3.64v8.42
		c0,0.5-0.24,0.87-0.71,1.12c-0.48,0.25-1.01,0.38-1.61,0.38c-0.52,0-1.04-0.12-1.54-0.38c-0.5-0.25-0.75-0.62-0.75-1.12v-8.42
		c0-0.55-0.14-1.06-0.41-1.53s-0.65-0.87-1.12-1.2c-0.48-0.32-1-0.48-1.57-0.48c-0.48,0-0.94,0.13-1.39,0.39
		c-0.45,0.26-0.82,0.63-1.11,1.11c-0.29,0.48-0.43,1.05-0.43,1.71v8.42c0,0.38-0.23,0.73-0.68,1.03
		C101.78,38.39,101.23,38.54,100.59,38.54z"/>
	<path class="st3" d="M123.52,38.54c-2.14,0-3.78-0.46-4.91-1.39c-1.13-0.93-1.7-2.4-1.7-4.42V15.46c0-0.43,0.25-0.77,0.75-1.03
		c0.5-0.26,1.01-0.39,1.54-0.39c0.57,0,1.1,0.13,1.59,0.39c0.49,0.26,0.73,0.61,0.73,1.03v6.14h4.21c0.38,0,0.67,0.17,0.88,0.52
		c0.2,0.35,0.3,0.73,0.3,1.16c0,0.43-0.1,0.82-0.3,1.16c-0.2,0.34-0.5,0.52-0.88,0.52h-4.21v7.78c0,0.71,0.15,1.21,0.45,1.5
		s0.82,0.43,1.55,0.43h1.39c0.67,0,1.16,0.2,1.48,0.61c0.32,0.41,0.48,0.84,0.48,1.32c0,0.5-0.16,0.95-0.48,1.36
		s-0.82,0.61-1.48,0.61H123.52z"/>
</g>
<g id="Logo_2_">
	<g>
		<path class="st3" d="M20.9,34.38h-1.37c-6.24,0-11.3-5.08-11.3-11.34c0-7.61,6.14-13.77,13.72-13.77h19.43
			c4,0,7.23-3.25,7.23-7.26H22.03C10.42,2,1,11.45,1,23.12c0,10.23,8.26,18.52,18.45,18.52h1.54c8.6,0,15.58-7,15.58-15.64v-0.8
			c0-2.25-0.57-4.44-1.58-6.25h1.88c3.66,0,6.63-2.98,6.63-6.66l-21.7,0.01c-6.03,0.17-10.49,4.84-10.49,10.89
			c0,4.54,3.65,8.17,8.22,8.17h1.43c3.13,0,5.67-2.55,5.67-5.69c0-1.88-1.53-3.41-3.42-3.38c-0.62,0.01-1.22,0.28-1.65,0.74
			l-0.61,0.65c-0.56,0.6-1.49,0.72-2.14,0.22c-0.74-0.57-0.82-1.65-0.2-2.32l0.4-0.43c1.11-1.2,2.66-1.89,4.29-1.89h0
			c3.5,0,6.33,2.85,6.33,6.36C29.63,30.45,25.72,34.38,20.9,34.38z"/>
	</g>
</g>
</svg>
